<svg id="圖層_1_拷貝" data-name="圖層 1 拷貝" xmlns="http://www.w3.org/2000/svg" viewBox="0 0 390.63 39.36"><defs><style>.cls-1{fill:#fff;}</style></defs><title>VioletBK_white</title><path class="cls-1" d="M412.61,257c1.63,1.51,3.45,2.75,4.7,4.42,3.88,5.2,2.74,14.17-2.13,18.32a10.82,10.82,0,0,1-7.18,2.62c-9,0-18.05.07-27.07,0a11.32,11.32,0,0,1-11.35-11.23q-.13-8.57,0-17.14A11,11,0,0,1,380,243.26c8.51-.2,17-.26,25.56,0,6.82.17,10.63,7.28,7.37,13.27C412.75,256.74,412.6,257,412.61,257Zm-35.1-.48h27.15c3,0,5-1.75,5-4.4s-1.95-4.6-5-4.6q-11.56,0-23.14,0c-4.47,0-7.49,2.85-7.59,7.34-.12,5.3-.12,10.61-.07,15.92a7.07,7.07,0,0,0,7.19,7.11q13.46.06,26.9,0a6.88,6.88,0,0,0,6.79-5.48,29.42,29.42,0,0,0,.27-3.27c.42-4.19-2.63-8.39-8.24-8.28-9.16.2-18.33.06-27.5.05-.58,0-1.16-.05-1.78-.07Z" transform="translate(-85.04 -243.02)"/><path class="cls-1" d="M305.55,277.88v4.47h-34.8c-7.53,0-12.43-4.87-12.41-12.38a67.89,67.89,0,0,1,.26-9.14,11.16,11.16,0,0,1,11.07-9.71q15-.13,29.92,0a9,9,0,0,1,8.66,7.72,8.91,8.91,0,0,1-6.57,9.8,10.16,10.16,0,0,1-2.53.26q-15.7,0-31.42,0c-.39,0-.78-.05-1.24-.08v-4.29h32.29c2.8,0,4.6-1.37,5-3.74a4.35,4.35,0,0,0-4.11-5.17c-10.12-.05-20.24-.07-30.37,0a6.92,6.92,0,0,0-6.48,6.68c-.05,2.71-.05,5.41,0,8.12,0,4.48,2.92,7.43,7.4,7.44q16.69,0,33.38,0Z" transform="translate(-85.04 -243.02)"/><path class="cls-1" d="M465.78,243h4.53a39.18,39.18,0,0,1-1.11,4.54,11.78,11.78,0,0,1-11.64,8c-6.61,0-13.23.1-19.84,0-2.68-.06-5.1,1.78-5.08,4.51s2,4.47,5.13,4.47c8.52,0,17,.14,25.55,0,6.56-.13,11,4.57,11.73,8.63a75.69,75.69,0,0,1,.62,9.15H471c0-1.82-.13-3.61,0-5.39.38-4.54-3.23-8.08-8.05-8-8.07.12-16.14,0-24.2,0-4.72,0-5.17-.16-8.89-3.26v16.63h-4.28V243.21h4.22v10.95c.25,0,.39.1.42.07,2.19-2.5,5-3.21,8.24-3.17,6.46.08,12.93-.1,19.39.07a7.38,7.38,0,0,0,7.69-7C465.63,243.81,465.71,243.47,465.78,243Z" transform="translate(-85.04 -243.02)"/><path class="cls-1" d="M176.51,282.35c-4.31,0-8.62,0-12.93,0-7,0-12-5-12-12a72.91,72.91,0,0,1,.28-9.59,11.11,11.11,0,0,1,11-9.62c9.17-.11,18.34-.13,27.51,0a11.42,11.42,0,0,1,11.15,11.47,66.51,66.51,0,0,1-.3,10.48A11.13,11.13,0,0,1,190,282.34c-4.51.05-9,0-13.53,0Zm.06-4.47h0c4.56,0,9.12,0,13.68,0a6.85,6.85,0,0,0,6.73-6.56c.11-3.05.11-6.11,0-9.16a6.94,6.94,0,0,0-6.8-6.52q-13.6-.06-27.22,0a7,7,0,0,0-6.9,6.9c0,2.65,0,5.31,0,8,0,4.47,2.95,7.38,7.45,7.4S172.2,277.88,176.57,277.88Z" transform="translate(-85.04 -243.02)"/><path class="cls-1" d="M325.14,251v-7.81h4.38v7.83H358v4.53H326.51c-4.73,0-7.71,3-7.72,7.65,0,2.26.15,4.53,0,6.77a7.56,7.56,0,0,0,8,7.93c11.57-.2,23.16-.06,34.74-.06h1.84v4.38c-.37,0-.71.09-1.05.09-12,0-24.06,0-36.09,0-5.57,0-10.48-3.37-11.26-8.7a48,48,0,0,1,0-14c.73-4.78,4.12-7.74,9.14-8.39C324.38,251.21,324.67,251.13,325.14,251Z" transform="translate(-85.04 -243.02)"/><path class="cls-1" d="M130.68,243.21H135v5c0,3.95,0,7.91,0,11.87a8.71,8.71,0,0,1-8.27,8.79c-3.39.22-4.72,1.5-5,4.87-.53,5.32-4.13,8.6-9.51,8.59a42.54,42.54,0,0,1-6.59-.27,8.35,8.35,0,0,1-7-8c-.22-3.49-1.68-5-5.1-5.21-4.55-.3-8.12-3.54-8.3-8.11-.22-5.8-.05-11.61-.05-17.53h4.37c0,.52.07,1,.07,1.57,0,4.86.12,9.72,0,14.58a4.82,4.82,0,0,0,4.93,5.19,8.74,8.74,0,0,1,8.22,6.69,14.24,14.24,0,0,1,.24,2.08c.27,2.92,2,4.5,4.9,4.53,1.65,0,3.31,0,5,0a4.43,4.43,0,0,0,4.49-4.31c.35-5.53,3.27-8.51,8.83-9,2.87-.26,4.45-1.9,4.49-4.78.07-4.91.09-9.82.12-14.73C130.69,244.49,130.68,243.94,130.68,243.21Z" transform="translate(-85.04 -243.02)"/><path class="cls-1" d="M207.8,251.16H212v1.67c0,5.76.09,11.53,0,17.29a7.64,7.64,0,0,0,7.82,7.82c10.17-.19,20.35-.06,30.53-.06h1.86v4.37c-.38,0-.76.1-1.15.1-10.52,0-21.05,0-31.58,0A11.48,11.48,0,0,1,208,273.26a11.33,11.33,0,0,1-.23-2.54c0-6.16,0-12.32,0-18.49C207.72,251.9,207.77,251.56,207.8,251.16Z" transform="translate(-85.04 -243.02)"/><path class="cls-1" d="M145.41,282.27h-4.24V251.21h4.24Z" transform="translate(-85.04 -243.02)"/><path class="cls-1" d="M141.18,247.38v-4.16h4.27v4.16Z" transform="translate(-85.04 -243.02)"/></svg>